<svg version="1.1" id="Layer_1" xmlns="http://www.w3.org/2000/svg" xmlns:xlink="http://www.w3.org/1999/xlink" x="0px" y="0px"
	 width="100%" viewBox="0 0 108 98" enable-background="new 0 0 108 98" xml:space="preserve">
<path fill="#FCFDFE" opacity="1.000000" stroke="none" 
	d="
M64.000000,99.000000 
	C42.666668,99.000000 21.833334,99.000000 1.000000,99.000000 
	C1.000000,66.333336 1.000000,33.666668 1.000000,1.000000 
	C37.000000,1.000000 73.000000,1.000000 109.000000,1.000000 
	C109.000000,33.666668 109.000000,66.333336 109.000000,99.000000 
	C94.166664,99.000000 79.333336,99.000000 64.000000,99.000000 
M45.239380,37.750973 
	C43.616543,37.121964 41.993702,36.492950 39.921635,35.284492 
	C38.912216,33.866684 37.526672,32.581467 36.970547,31.003868 
	C35.758465,27.565458 35.301575,23.835865 33.878208,20.506514 
	C33.058868,18.590023 30.733543,15.715603 29.471989,15.900809 
	C26.153267,16.388025 26.873529,19.374891 27.595974,21.907120 
	C28.191698,23.995190 28.594347,26.138346 29.249878,28.983232 
	C26.464275,27.462650 24.669922,26.064451 22.647661,25.532238 
	C21.382153,25.199186 19.773500,26.169983 18.318819,26.555733 
	C18.738367,28.002880 18.742903,29.859484 19.673355,30.802563 
	C21.120075,32.268909 23.196512,33.113964 25.846972,34.737457 
	C22.247496,35.787106 19.420456,36.240124 16.989986,37.474182 
	C15.741864,38.107906 15.201501,40.135548 14.341296,41.533268 
	C15.822814,42.257942 17.392281,43.721149 18.767990,43.557323 
	C21.866211,43.188362 24.981258,42.290665 27.886007,41.108307 
	C33.711842,38.736946 38.108265,40.833485 42.005024,45.860077 
	C41.968212,48.216248 41.931396,50.572414 41.439320,53.465157 
	C37.347576,56.778297 33.018246,58.297894 27.755774,56.082829 
	C25.072517,54.953396 22.125278,54.141773 19.241213,53.921432 
	C17.656528,53.800362 15.955291,55.204868 14.306605,55.921528 
	C15.386614,57.346066 16.178324,59.335449 17.611944,60.067177 
	C19.958038,61.264637 22.721786,61.643814 26.176653,62.610924 
	C23.638954,64.065048 21.679140,64.767990 20.330360,66.092957 
	C19.238810,67.165237 18.882729,68.986191 18.200418,70.475067 
	C19.937954,70.835915 21.757288,71.692741 23.390877,71.423325 
	C25.156046,71.132195 26.747662,69.788780 29.457003,68.351624 
	C28.468773,72.059967 27.361868,74.561241 27.290903,77.091576 
	C27.247425,78.641853 28.792507,80.236687 29.624203,81.811508 
	C30.933382,80.808792 32.912102,80.066353 33.422611,78.753151 
	C34.797058,75.217598 35.833942,71.487602 36.470375,67.743942 
	C37.314270,62.779942 40.878395,60.897171 45.354282,59.840302 
	C46.635410,60.673977 47.916534,61.507656 49.802193,62.842266 
	C53.393841,63.625572 54.564625,66.102226 53.750229,69.341011 
	C53.187309,71.579704 51.886879,73.632957 50.315559,76.090820 
	C47.719326,78.618271 44.878036,80.951225 42.643894,83.766068 
	C41.711475,84.940849 42.070446,87.140602 41.842239,88.874313 
	C43.565029,88.738335 45.662857,89.169815 46.924461,88.336021 
	C48.916256,87.019638 50.346817,84.854057 52.816799,83.083519 
	C53.170380,85.259705 53.245354,87.536118 53.979061,89.575546 
	C54.440178,90.857269 55.889439,91.783493 56.895393,92.869202 
	C57.924919,91.750725 59.479713,90.782188 59.852520,89.476234 
	C60.330826,87.800713 59.858864,85.853912 59.981651,83.649689 
	C60.038769,83.233124 60.095890,82.816559 60.721836,82.623337 
	C62.734921,84.566872 64.544571,86.819977 66.842499,88.330063 
	C68.087631,89.148308 70.165070,88.700012 71.867058,88.823051 
	C71.693077,87.103539 72.150627,84.841270 71.226723,83.766266 
	C68.452705,80.538559 65.139626,77.774139 61.655579,74.189781 
	C61.146126,70.894905 60.636673,67.600037 60.847973,64.134254 
	C61.933899,63.731632 63.071072,63.429459 64.095718,62.906723 
	C66.705681,61.575214 68.594429,58.607742 72.439545,61.141186 
	C75.423584,63.107292 76.593651,65.493759 77.276527,68.685829 
	C78.001961,72.076843 78.795616,75.522972 80.180794,78.671700 
	C80.808624,80.098846 82.936699,80.865997 84.384186,81.932549 
	C85.185760,80.197800 86.624504,78.466553 86.634064,76.727448 
	C86.647179,74.339615 85.577332,71.945831 84.733780,68.616104 
	C87.395187,70.096039 88.892357,71.375847 90.584984,71.735344 
	C92.072891,72.051346 93.779640,71.336945 95.389740,71.077614 
	C95.006699,69.541374 94.623665,68.005135 93.768051,66.067551 
	C92.154884,65.062103 90.541710,64.056656 89.229622,62.357666 
	C92.683174,60.608761 96.136734,58.859859 99.826912,56.659939 
	C99.553757,56.106064 99.280602,55.552185 98.700874,54.343296 
	C94.626503,54.794750 90.424538,54.769142 86.509460,55.816208 
	C81.405472,57.181236 76.761604,57.840122 72.603485,53.297909 
	C72.707840,52.010315 72.931435,50.392311 72.954437,48.771454 
	C73.057770,41.489208 76.290474,39.040714 83.477493,40.900528 
	C87.158043,41.852955 90.797981,42.979954 94.506569,43.800835 
	C97.454407,44.453327 99.568794,43.733135 98.928749,39.259392 
	C95.616776,37.614239 92.304794,35.969082 89.562187,34.606747 
	C91.490456,32.583858 93.659637,30.308229 95.890182,27.324759 
	C94.586578,26.585461 93.282974,25.846163 91.271217,25.109623 
	C89.357643,26.064573 87.444061,27.019524 85.997864,27.741232 
	C85.585739,24.219162 85.225243,21.138315 84.750267,17.341131 
	C82.559151,14.926034 80.949608,15.683048 80.063232,18.406019 
	C79.249092,20.907114 78.766640,23.516180 77.929596,26.794966 
	C76.604485,29.518152 75.917267,32.967045 73.819374,34.811073 
	C69.654053,38.472351 66.588638,37.530758 59.977123,31.146017 
	C60.027164,28.877848 60.077206,26.609678 60.732620,24.019896 
	C64.961784,20.427965 69.190948,16.836037 73.120514,13.498568 
	C69.539803,8.037340 67.009926,8.069015 64.131790,11.342127 
	C62.964321,12.669811 61.428650,13.673721 60.035606,13.970734 
	C59.734699,11.248202 59.433792,8.525671 58.781811,5.216989 
	C55.001015,3.072867 54.163620,5.276152 53.774525,8.478908 
	C53.517452,10.594949 52.935604,12.671536 52.021336,14.255126 
	C50.435303,12.572886 49.076599,10.534587 47.186840,9.328073 
	C45.827221,8.460022 43.759274,8.701420 42.007286,8.447926 
	C42.131561,10.193609 41.598495,12.481863 42.505871,13.581174 
	C45.023201,16.630985 48.140163,19.185856 51.339596,22.587379 
	C54.997551,26.981037 54.873013,31.410130 50.378830,34.268246 
	C48.884392,35.380608 47.389954,36.492970 45.239380,37.750973 
z"/>
<path fill="#4391F3" opacity="1.000000" stroke="none" 
	d="
M44.876583,59.263603 
	C40.878395,60.897171 37.314270,62.779942 36.470375,67.743942 
	C35.833942,71.487602 34.797058,75.217598 33.422611,78.753151 
	C32.912102,80.066353 30.933382,80.808792 29.624203,81.811508 
	C28.792507,80.236687 27.247425,78.641853 27.290903,77.091576 
	C27.361868,74.561241 28.468773,72.059967 29.457003,68.351624 
	C26.747662,69.788780 25.156046,71.132195 23.390877,71.423325 
	C21.757288,71.692741 19.937954,70.835915 18.200417,70.475067 
	C18.882729,68.986191 19.238810,67.165237 20.330360,66.092957 
	C21.679140,64.767990 23.638954,64.065048 26.176653,62.610924 
	C22.721786,61.643814 19.958038,61.264637 17.611944,60.067177 
	C16.178324,59.335449 15.386614,57.346066 14.306604,55.921528 
	C15.955291,55.204868 17.656528,53.800362 19.241213,53.921432 
	C22.125278,54.141773 25.072517,54.953396 27.755774,56.082829 
	C33.018246,58.297894 37.347576,56.778297 41.951500,53.390152 
	C43.267979,55.297966 44.072281,57.280785 44.876583,59.263603 
z"/>
<path fill="#4491F3" opacity="1.000000" stroke="none" 
	d="
M42.047871,44.973579 
	C38.108265,40.833485 33.711842,38.736946 27.886007,41.108307 
	C24.981258,42.290665 21.866211,43.188362 18.767990,43.557323 
	C17.392281,43.721149 15.822814,42.257942 14.341296,41.533268 
	C15.201501,40.135548 15.741864,38.107906 16.989986,37.474182 
	C19.420456,36.240124 22.247496,35.787106 25.846972,34.737457 
	C23.196512,33.113964 21.120075,32.268909 19.673355,30.802563 
	C18.742903,29.859484 18.738367,28.002880 18.318819,26.555733 
	C19.773500,26.169983 21.382153,25.199186 22.647661,25.532238 
	C24.669922,26.064451 26.464275,27.462650 29.249878,28.983232 
	C28.594347,26.138346 28.191698,23.995190 27.595974,21.907120 
	C26.873529,19.374891 26.153267,16.388025 29.471989,15.900809 
	C30.733543,15.715603 33.058868,18.590023 33.878208,20.506514 
	C35.301575,23.835865 35.758465,27.565458 36.970547,31.003868 
	C37.526672,32.581467 38.912216,33.866684 39.742813,35.609894 
	C36.921005,35.098499 34.278019,34.261703 31.635029,33.424908 
	C33.298195,35.557198 35.461246,36.586010 37.514885,37.799934 
	C39.736801,39.113327 41.856594,40.599476 43.989960,42.326492 
	C43.321949,43.419666 42.684910,44.196621 42.047871,44.973579 
z"/>
<path fill="#52C8F6" opacity="1.000000" stroke="none" 
	d="
M98.840759,39.994278 
	C99.568794,43.733135 97.454407,44.453327 94.506569,43.800835 
	C90.797981,42.979954 87.158043,41.852955 83.477493,40.900528 
	C76.290474,39.040714 73.057770,41.489208 72.954437,48.771454 
	C72.931435,50.392311 72.707840,52.010315 72.603485,53.297909 
	C76.761604,57.840122 81.405472,57.181236 86.509460,55.816208 
	C90.424538,54.769142 94.626503,54.794750 98.608871,54.860004 
	C98.874672,55.954792 99.232483,56.532875 99.590286,57.110954 
	C96.136734,58.859859 92.683174,60.608761 89.093613,62.693584 
	C88.957603,63.029503 88.956444,63.044518 88.610092,63.022934 
	C87.176033,62.670731 86.088326,62.340107 85.000504,61.674400 
	C85.000267,60.892776 85.000130,60.446236 85.395584,59.989147 
	C89.022743,59.110981 92.254311,58.243362 95.485870,57.375744 
	C95.365150,56.846020 95.244431,56.316299 95.123711,55.786575 
	C91.080284,56.867176 87.036850,57.947781 82.574486,59.026123 
	C79.415245,58.681374 76.674942,58.338886 73.709579,57.999290 
	C73.484528,58.002174 73.034386,58.004108 72.970490,57.659462 
	C71.932953,56.875980 70.959312,56.437145 69.743774,56.000244 
	C69.501884,56.002174 69.018089,56.004669 69.014587,55.583054 
	C69.296356,53.715405 69.607674,52.273945 69.862518,50.822567 
	C71.192871,43.245811 65.556252,36.185898 58.122669,35.715916 
	C58.484921,34.974079 58.741989,34.486889 58.998463,33.666382 
	C58.998173,32.888653 58.998482,32.444233 59.214348,32.000786 
	C59.429909,32.001755 59.860985,32.005867 59.860985,32.005867 
	C66.588638,37.530758 69.654053,38.472351 73.819374,34.811073 
	C75.917267,32.967045 76.604485,29.518152 78.291122,26.698475 
	C78.075516,30.308022 77.498375,34.014061 76.872650,38.032082 
	C78.983162,37.323021 80.975533,36.653648 83.192215,36.095169 
	C83.698059,36.407181 83.892448,36.672218 83.815613,37.227772 
	C87.534111,39.386913 91.263023,42.164524 96.362274,39.998161 
	C97.424606,39.997066 98.132683,39.995670 98.840759,39.994278 
z"/>
<path fill="#4FC7F6" opacity="1.000000" stroke="none" 
	d="
M73.034386,58.004108 
	C73.034386,58.004108 73.484528,58.002174 73.773300,58.358650 
	C75.257034,59.720200 76.310669,61.022095 77.674896,61.671696 
	C81.040688,63.274384 84.548988,64.577797 88.217651,66.286705 
	C90.370407,66.537567 92.305511,66.503235 94.240616,66.468903 
	C94.623665,68.005135 95.006699,69.541374 95.389740,71.077614 
	C93.779640,71.336945 92.072891,72.051346 90.584984,71.735344 
	C88.892357,71.375847 87.395187,70.096039 84.733780,68.616104 
	C85.577332,71.945831 86.647179,74.339615 86.634064,76.727448 
	C86.624504,78.466553 85.185760,80.197800 84.384186,81.932549 
	C82.936699,80.865997 80.808624,80.098846 80.180794,78.671700 
	C78.795616,75.522972 78.001961,72.076843 77.276527,68.685829 
	C76.593651,65.493759 75.423584,63.107292 72.439545,61.141186 
	C68.594429,58.607742 66.705681,61.575214 64.095718,62.906723 
	C63.071072,63.429459 61.933899,63.731632 60.443352,63.889267 
	C60.019173,63.423302 59.999615,63.202316 60.179260,62.716026 
	C63.258339,60.302040 66.138214,58.153355 69.018089,56.004669 
	C69.018089,56.004669 69.501884,56.002174 69.890594,56.289833 
	C71.197662,57.053028 72.116020,57.528568 73.034386,58.004108 
z"/>
<path fill="#44B2F4" opacity="1.000000" stroke="none" 
	d="
M59.796314,84.023994 
	C59.858864,85.853912 60.330826,87.800713 59.852520,89.476234 
	C59.479713,90.782188 57.924919,91.750725 56.895390,92.869202 
	C55.889439,91.783493 54.440178,90.857269 53.979061,89.575546 
	C53.245354,87.536118 53.170380,85.259705 52.410393,82.650452 
	C51.641327,80.067955 51.278667,77.918510 50.916008,75.769073 
	C51.886879,73.632957 53.187309,71.579704 53.750229,69.341011 
	C54.564625,66.102226 53.393841,63.625572 49.894386,62.499008 
	C50.663235,61.792496 51.339886,61.429241 52.261871,61.051598 
	C52.507206,61.037209 52.998878,61.027424 53.198196,61.203423 
	C54.603783,61.916470 55.810047,62.453522 57.013039,63.459724 
	C57.008865,69.410286 56.838219,74.900894 57.134190,80.366226 
	C57.202618,81.629829 58.866566,82.807030 59.796314,84.023994 
z"/>
<path fill="#47B3F4" opacity="1.000000" stroke="none" 
	d="
M58.998795,31.999817 
	C58.998482,32.444233 58.998173,32.888653 58.647766,33.671078 
	C57.514973,34.650501 56.732273,35.291912 55.623318,35.940323 
	C54.862019,35.954937 54.426979,35.962559 53.698296,35.850201 
	C52.604210,35.489510 51.803761,35.248798 51.006138,34.803398 
	C51.008965,34.598717 51.013363,34.189339 51.013363,34.189339 
	C54.873013,31.410130 54.997551,26.981037 51.212242,21.908092 
	C51.556313,19.074467 52.027740,16.920128 52.499168,14.765788 
	C52.935604,12.671536 53.517452,10.594949 53.774525,8.478908 
	C54.163620,5.276152 55.001015,3.072867 58.784206,5.876510 
	C56.125858,15.046721 55.817940,23.537806 58.998795,31.999817 
z"/>
<path fill="#6ACBFB" opacity="1.000000" stroke="none" 
	d="
M82.967903,35.984276 
	C80.975533,36.653648 78.983162,37.323021 76.872650,38.032082 
	C77.498375,34.014061 78.075516,30.308022 78.395355,26.339832 
	C78.766640,23.516180 79.249092,20.907114 80.063232,18.406019 
	C80.949608,15.683048 82.559151,14.926034 84.501434,17.875793 
	C82.837784,23.046812 81.422951,27.683170 80.008118,32.319527 
	C80.510521,32.615875 81.012924,32.912224 81.515327,33.208572 
	C85.003342,30.508003 88.491356,27.807434 91.979370,25.106865 
	C93.282974,25.846163 94.586578,26.585461 95.500626,27.675705 
	C91.063339,30.679192 87.015625,33.331734 82.967903,35.984276 
z"/>
<path fill="#49C5F5" opacity="1.000000" stroke="none" 
	d="
M60.060520,14.824957 
	C61.428650,13.673721 62.964321,12.669811 64.131790,11.342127 
	C67.009926,8.069015 69.539803,8.037340 73.120514,13.498568 
	C69.190948,16.836037 64.961784,20.427965 60.390587,23.698097 
	C60.052547,20.525854 60.056534,17.675406 60.060520,14.824957 
z"/>
<path fill="#49C4F5" opacity="1.000000" stroke="none" 
	d="
M62.036880,74.828949 
	C65.139626,77.774139 68.452705,80.538559 71.226723,83.766266 
	C72.150627,84.841270 71.693077,87.103539 71.867058,88.823051 
	C70.165070,88.700012 68.087631,89.148308 66.842499,88.330063 
	C64.544571,86.819977 62.734921,84.566872 60.391098,82.079491 
	C60.719196,79.300079 61.378040,77.064514 62.036880,74.828949 
z"/>
<path fill="#4AA4F4" opacity="1.000000" stroke="none" 
	d="
M52.260254,14.510457 
	C52.027740,16.920128 51.556313,19.074467 51.052536,21.582552 
	C48.140163,19.185856 45.023201,16.630985 42.505871,13.581174 
	C41.598495,12.481863 42.131561,10.193609 42.007286,8.447926 
	C43.759274,8.701420 45.827221,8.460022 47.186840,9.328073 
	C49.076599,10.534587 50.435303,12.572886 52.260254,14.510457 
z"/>
<path fill="#44A0F4" opacity="1.000000" stroke="none" 
	d="
M50.615784,75.929947 
	C51.278667,77.918510 51.641327,80.067955 52.009453,82.632652 
	C50.346817,84.854057 48.916256,87.019638 46.924461,88.336021 
	C45.662857,89.169815 43.565029,88.738335 41.842239,88.874313 
	C42.070446,87.140602 41.711475,84.940849 42.643894,83.766068 
	C44.878036,80.951225 47.719326,78.618271 50.615784,75.929947 
z"/>
<path fill="#4CC7F6" opacity="1.000000" stroke="none" 
	d="
M83.192215,36.095169 
	C87.015625,33.331734 91.063339,30.679192 95.469940,28.029625 
	C93.659637,30.308229 91.490456,32.583858 89.562187,34.606747 
	C92.304794,35.969082 95.616776,37.614239 98.884750,39.626835 
	C98.132683,39.995670 97.424606,39.997066 96.012939,39.847763 
	C91.539467,38.798431 87.769585,37.899799 83.999695,37.001167 
	C83.892448,36.672218 83.698059,36.407181 83.192215,36.095169 
z"/>
<path fill="#5CC0F8" opacity="1.000000" stroke="none" 
	d="
M61.846230,74.509369 
	C61.378040,77.064514 60.719196,79.300079 60.106682,81.967819 
	C60.095890,82.816559 60.038769,83.233124 59.888985,83.836838 
	C58.866566,82.807030 57.202618,81.629829 57.134190,80.366226 
	C56.838219,74.900894 57.008865,69.410286 57.383392,63.462124 
	C58.498032,62.990688 59.239044,62.986008 59.980053,62.981331 
	C59.999615,63.202316 60.019173,63.423302 60.082970,63.974724 
	C60.636673,67.600037 61.146126,70.894905 61.846230,74.509369 
z"/>
<path fill="#58C0F8" opacity="1.000000" stroke="none" 
	d="
M60.048065,14.397846 
	C60.056534,17.675406 60.052547,20.525854 60.087898,23.858906 
	C60.077206,26.609678 60.027164,28.877848 59.919052,31.575943 
	C59.860985,32.005867 59.429909,32.001755 59.214352,32.000786 
	C55.817940,23.537806 56.125858,15.046721 58.959743,6.169586 
	C59.433792,8.525671 59.734699,11.248202 60.048065,14.397846 
z"/>
<path fill="#4FC9F6" opacity="1.000000" stroke="none" 
	d="
M91.625290,25.108246 
	C88.491356,27.807434 85.003342,30.508003 81.515327,33.208572 
	C81.012924,32.912224 80.510521,32.615875 80.008118,32.319527 
	C81.422951,27.683170 82.837784,23.046812 84.558678,18.233963 
	C85.225243,21.138315 85.585739,24.219162 85.997864,27.741232 
	C87.444061,27.019524 89.357643,26.064573 91.625290,25.108246 
z"/>
<path fill="#53ADF6" opacity="1.000000" stroke="none" 
	d="
M52.016541,61.065979 
	C51.339886,61.429241 50.663235,61.792496 49.592125,62.248543 
	C47.916534,61.507656 46.635410,60.673977 45.115433,59.551952 
	C44.072281,57.280785 43.267979,55.297966 42.179131,53.121864 
	C41.931396,50.572414 41.968212,48.216248 42.026447,45.416828 
	C42.684910,44.196621 43.321949,43.419666 44.239571,42.326202 
	C44.520153,42.009689 45.019878,42.014187 45.014721,42.425163 
	C44.533802,46.632664 42.819054,50.537136 46.005806,54.312698 
	C46.346779,55.076233 46.665615,55.543564 47.021149,56.351143 
	C48.710743,58.149590 50.363640,59.607784 52.016541,61.065979 
z"/>
<path fill="#4E9CF8" opacity="1.000000" stroke="none" 
	d="
M45.019878,42.014187 
	C45.019878,42.014187 44.520153,42.009689 44.270542,42.009983 
	C41.856594,40.599476 39.736801,39.113327 37.514885,37.799934 
	C35.461246,36.586010 33.298195,35.557198 31.635029,33.424908 
	C34.278019,34.261703 36.921005,35.098499 39.967430,35.899616 
	C41.993702,36.492950 43.616543,37.121964 45.599400,38.081383 
	C45.977303,38.948410 45.995190,39.485031 45.770355,40.188950 
	C45.358387,40.908894 45.189133,41.461540 45.019878,42.014187 
z"/>
<path fill="#51C7F6" opacity="1.000000" stroke="none" 
	d="
M94.004333,66.268227 
	C92.305511,66.503235 90.370407,66.537567 88.477463,66.084702 
	C88.665237,64.746506 88.810837,63.895512 88.956436,63.044518 
	C88.956444,63.044518 88.957603,63.029503 88.943069,63.040359 
	C90.541710,64.056656 92.154884,65.062103 94.004333,66.268227 
z"/>
<path fill="#53ADF6" opacity="1.000000" stroke="none" 
	d="
M46.013069,40.021652 
	C45.995190,39.485031 45.977303,38.948410 45.927467,38.008564 
	C47.389954,36.492970 48.884392,35.380608 50.696098,34.228790 
	C51.013363,34.189339 51.008965,34.598717 50.979752,35.129982 
	C50.284996,36.773266 49.619450,37.885284 48.746017,39.103249 
	C48.278782,39.400887 48.096931,39.649326 47.662636,39.967289 
	C46.892811,39.993927 46.452942,40.007790 46.013069,40.021652 
z"/>
<path fill="#68CBFA" opacity="1.000000" stroke="none" 
	d="
M99.708603,56.885445 
	C99.232483,56.532875 98.874672,55.954792 98.762161,55.187508 
	C99.280602,55.552185 99.553757,56.106064 99.708603,56.885445 
z"/>
<path fill="#64CBF8" opacity="1.000000" stroke="none" 
	d="
M60.179260,62.716026 
	C59.239044,62.986008 58.498032,62.990688 57.386665,62.992973 
	C55.810047,62.453522 54.603783,61.916470 53.198906,60.944000 
	C53.000626,60.335846 53.000954,60.163116 53.352276,59.992729 
	C54.815960,59.995071 55.928654,59.995071 57.471931,59.995071 
	C56.786064,59.126320 56.410847,58.651047 56.421455,58.116982 
	C61.811028,57.952782 64.846603,55.106667 65.828705,50.547169 
	C66.890892,45.615849 64.600105,41.986374 59.934479,39.576782 
	C58.902473,39.209946 57.917545,39.166138 56.637016,39.171242 
	C55.946117,39.270725 55.550819,39.321304 55.112942,39.024803 
	C55.046944,38.445786 55.023518,38.213844 54.889698,37.722813 
	C54.516853,36.965878 54.254395,36.468029 53.991936,35.970181 
	C54.426979,35.962559 54.862019,35.954937 55.968040,35.961456 
	C57.098511,35.973911 57.557999,35.972237 58.017487,35.970562 
	C65.556252,36.185898 71.192871,43.245811 69.862518,50.822567 
	C69.607674,52.273945 69.296356,53.715405 69.014587,55.583054 
	C66.138214,58.153355 63.258339,60.302040 60.179260,62.716026 
z"/>
<path fill="#6ECAFC" opacity="1.000000" stroke="none" 
	d="
M88.610092,63.022934 
	C88.810837,63.895512 88.665237,64.746506 88.259811,65.799515 
	C84.548988,64.577797 81.040688,63.274384 77.674896,61.671696 
	C76.310669,61.022095 75.257034,59.720200 73.998352,58.355766 
	C76.674942,58.338886 79.415245,58.681374 82.575600,59.266052 
	C82.995651,59.508240 82.995422,59.988800 83.036949,60.310364 
	C83.719185,61.091114 84.359894,61.550301 85.000610,62.009483 
	C86.088326,62.340107 87.176033,62.670731 88.610092,63.022934 
z"/>
<path fill="#68CBFA" opacity="1.000000" stroke="none" 
	d="
M82.995422,59.988800 
	C82.995422,59.988800 82.995651,59.508240 82.994537,59.268311 
	C87.036850,57.947781 91.080284,56.867176 95.123711,55.786575 
	C95.244431,56.316299 95.365150,56.846020 95.485870,57.375744 
	C92.254311,58.243362 89.022743,59.110981 85.061523,59.988487 
	C83.886383,59.995182 83.440903,59.991993 82.995422,59.988800 
z"/>
<path fill="#69C9FB" opacity="1.000000" stroke="none" 
	d="
M83.815613,37.227768 
	C87.769585,37.899799 91.539467,38.798431 95.658691,39.847462 
	C91.263023,42.164524 87.534111,39.386913 83.815613,37.227768 
z"/>
<path fill="#58C0F8" opacity="1.000000" stroke="none" 
	d="
M58.122669,35.715916 
	C57.557999,35.972237 57.098511,35.973911 56.294296,35.954460 
	C56.732273,35.291912 57.514973,34.650501 58.648369,34.004391 
	C58.741989,34.486889 58.484921,34.974079 58.122669,35.715916 
z"/>
<path fill="#64CBF8" opacity="1.000000" stroke="none" 
	d="
M72.970490,57.659462 
	C72.116020,57.528568 71.197662,57.053028 70.132484,56.287903 
	C70.959312,56.437145 71.932953,56.875980 72.970490,57.659462 
z"/>
<path fill="#51C7F6" opacity="1.000000" stroke="none" 
	d="
M83.036949,60.310364 
	C83.440903,59.991993 83.886383,59.995182 84.665924,59.999035 
	C85.000130,60.446236 85.000267,60.892776 85.000504,61.674400 
	C84.359894,61.550301 83.719185,61.091114 83.036949,60.310364 
z"/>
<path fill="#66C1F9" opacity="1.000000" stroke="none" 
	d="
M53.001286,59.990387 
	C53.000954,60.163116 53.000626,60.335846 52.999588,60.767998 
	C52.998878,61.027424 52.507206,61.037209 52.261871,61.051594 
	C50.363640,59.607784 48.710743,58.149590 47.027618,56.346710 
	C46.997391,56.002018 47.002422,55.997559 47.395859,55.996681 
	C48.577595,55.957386 49.365891,55.918972 50.097775,55.919796 
	C50.041363,55.959030 50.114029,55.842384 50.101837,56.187035 
	C51.060196,57.684586 52.030743,58.837486 53.001286,59.990387 
z"/>
<path fill="#66C1F9" opacity="1.000000" stroke="none" 
	d="
M53.698296,35.850201 
	C54.254395,36.468029 54.516853,36.965878 54.503658,37.734833 
	C52.469975,38.336391 50.711937,38.666847 48.953903,38.997307 
	C49.619450,37.885284 50.284996,36.773266 50.976929,35.334663 
	C51.803761,35.248798 52.604210,35.489510 53.698296,35.850201 
z"/>
<path fill="#66C1F9" opacity="1.000000" stroke="none" 
	d="
M45.770355,40.188950 
	C46.452942,40.007790 46.892811,39.993927 47.785591,40.259270 
	C48.520706,41.101513 48.802910,41.664547 49.072372,42.425491 
	C49.059635,42.623398 48.945961,43.003387 48.538479,43.017151 
	C47.421631,44.076931 46.231808,45.066010 46.099720,46.180450 
	C45.794678,48.754124 46.002548,51.388592 45.999359,54.000946 
	C45.996349,54.003498 45.983662,54.016487 45.983662,54.016487 
	C42.819054,50.537136 44.533802,46.632664 45.014721,42.425163 
	C45.189133,41.461540 45.358387,40.908894 45.770355,40.188950 
z"/>
<path fill="#66C1F9" opacity="1.000000" stroke="none" 
	d="
M46.990921,56.006454 
	C46.665615,55.543564 46.346779,55.076233 46.005806,54.312698 
	C45.983662,54.016487 45.996349,54.003498 46.244671,54.167957 
	C46.662804,54.887463 46.832615,55.442513 47.002422,55.997559 
	C47.002422,55.997559 46.997391,56.002018 46.990921,56.006454 
z"/>
<path fill="#5DBBF7" opacity="1.000000" stroke="none" 
	d="
M49.085114,42.227585 
	C48.802910,41.664547 48.520706,41.101513 48.115547,40.246490 
	C48.096931,39.649326 48.278782,39.400887 48.746017,39.103249 
	C50.711937,38.666847 52.469975,38.336391 54.614048,37.993919 
	C55.023518,38.213844 55.046944,38.445786 54.853828,39.243629 
	C52.786564,40.615551 50.935841,41.421570 49.085114,42.227585 
z"/>
<path fill="#FBFDFE" opacity="1.000000" stroke="none" 
	d="
M49.072372,42.425491 
	C50.935841,41.421570 52.786564,40.615551 54.896400,39.590710 
	C55.550819,39.321304 55.946117,39.270725 56.905563,39.357155 
	C58.306992,39.629375 59.144276,39.764591 59.981556,39.899811 
	C64.600105,41.986374 66.890892,45.615849 65.828705,50.547169 
	C64.846603,55.106667 61.811028,57.952782 56.061424,58.048706 
	C53.581722,57.306942 51.847878,56.574665 50.114029,55.842384 
	C50.114029,55.842384 50.041363,55.959030 49.994194,55.556751 
	C46.927814,51.325356 47.433636,47.205833 48.945961,43.003387 
	C48.945961,43.003387 49.059635,42.623398 49.072372,42.425491 
z"/>
<path fill="#5DBBF7" opacity="1.000000" stroke="none" 
	d="
M50.101837,56.187035 
	C51.847878,56.574665 53.581722,57.306942 55.675598,58.107498 
	C56.410847,58.651047 56.786064,59.126320 57.471931,59.995071 
	C55.928654,59.995071 54.815960,59.995071 53.352276,59.992729 
	C52.030743,58.837486 51.060196,57.684586 50.101837,56.187035 
z"/>
<path fill="#5DBBF7" opacity="1.000000" stroke="none" 
	d="
M59.934479,39.576778 
	C59.144276,39.764591 58.306992,39.629375 57.201164,39.308247 
	C57.917545,39.166138 58.902473,39.209946 59.934479,39.576778 
z"/>
<path fill="#5DBBF7" opacity="1.000000" stroke="none" 
	d="
M48.538479,43.017151 
	C47.433636,47.205833 46.927814,51.325356 50.050606,55.517517 
	C49.365891,55.918972 48.577595,55.957386 47.395859,55.996681 
	C46.832615,55.442513 46.662804,54.887463 46.247681,54.165405 
	C46.002548,51.388592 45.794678,48.754124 46.099720,46.180450 
	C46.231808,45.066010 47.421631,44.076931 48.538479,43.017151 
z"/>
</svg>